<svg width="31" height="27" viewBox="0 0 31 27" fill="none" xmlns="http://www.w3.org/2000/svg">
<path d="M30 2.0383C28.55 2.7488 27.129 3.03735 25.65 3.4738C24.0246 1.63955 21.6147 1.53805 19.299 2.40515C16.9834 3.27225 15.4667 5.39215 15.5 7.8238V9.2738C10.7948 9.39415 6.60425 7.25105 3.9 3.4738C3.9 3.4738 -2.1639 14.2516 9.7 19.4238C6.9856 21.2319 4.27845 22.4514 1 22.3238C5.7966 24.9381 11.0239 25.8371 15.5493 24.5234C20.7403 23.0154 25.0062 19.1251 26.6433 13.2975C27.1316 11.5252 27.3741 9.69409 27.3639 7.8557C27.3639 7.49465 29.5534 3.8363 30 2.03685V2.0383Z" stroke="white" stroke-width="2" stroke-linecap="round" stroke-linejoin="round"/>
</svg>
